<?xml version="1.0" standalone="no"?>
<!DOCTYPE svg PUBLIC "-//W3C//DTD SVG 20010904//EN"
 "http://www.w3.org/TR/2001/REC-SVG-20010904/DTD/svg10.dtd">
<svg version="1.0" xmlns="http://www.w3.org/2000/svg"
 width="800.000000pt" height="800.000000pt" viewBox="0 0 800.000000 800.000000"
 preserveAspectRatio="xMidYMid meet">
<metadata>
Created by potrace 1.14, written by Peter Selinger 2001-2017
</metadata>
<g transform="translate(0.000000,800.000000) scale(0.100000,-0.100000)"
fill="#000000" stroke="none">
<path d="M2764 6381 c-52 -24 -105 -71 -126 -113 -15 -28 -43 -130 -169 -613
-12 -44 -25 -91 -29 -105 -5 -14 -16 -56 -26 -95 -10 -38 -21 -72 -25 -75 -8
-6 -24 -71 -20 -88 1 -8 -3 -19 -9 -27 -6 -7 -10 -17 -9 -21 1 -5 0 -20 -1
-34 -2 -18 -4 -20 -7 -7 -2 9 -9 17 -15 17 -6 0 -7 -7 -3 -17 4 -10 9 -27 12
-38 4 -17 3 -18 -7 -5 -9 12 -11 9 -8 -17 3 -18 1 -30 -3 -27 -4 2 -10 -2 -13
-8 -3 -7 -3 -1 0 14 7 32 -22 77 -49 78 -15 0 -16 3 -6 21 8 15 8 19 0 15 -7
-5 -11 2 -11 16 -1 63 -7 68 -82 68 -61 0 -71 2 -75 20 -4 17 -15 20 -81 22
l-76 3 -8 34 c-5 18 -6 36 -3 39 3 3 8 -4 12 -16 4 -17 13 -22 38 -22 18 0 35
-4 37 -8 2 -5 27 -12 56 -15 45 -5 52 -4 52 12 0 22 -32 38 -94 45 -33 4 -54
13 -63 26 -15 21 -43 27 -43 10 0 -5 -16 -10 -35 -10 -28 0 -35 4 -35 20 0 15
-7 20 -24 20 -14 0 -28 5 -31 10 -4 6 -60 10 -136 10 -108 0 -129 2 -129 15 0
8 -6 15 -13 15 -8 0 -20 11 -27 25 -13 25 -40 35 -40 15 0 -6 -31 -10 -74 -10
-41 0 -78 5 -81 10 -3 6 -42 10 -86 10 -51 0 -78 4 -74 10 3 6 40 10 81 10 43
0 74 4 74 10 0 6 -33 10 -80 10 -87 0 -84 3 -80 -67 l2 -33 -82 0 -82 0 4 33
c3 30 1 33 -19 29 -18 -3 -23 0 -23 17 0 14 6 21 20 21 13 0 20 7 20 20 0 18
-7 20 -68 20 -40 0 -73 5 -80 12 -9 9 -12 5 -12 -20 l0 -32 -240 0 c-233 0
-240 -1 -240 -20 0 -19 -7 -20 -160 -20 l-160 0 0 -2800 0 -2800 4000 0 4000
0 0 280 0 280 -80 0 -80 0 0 40 0 40 80 0 80 0 0 120 c0 111 -1 120 -19 120
-10 0 -21 9 -24 20 -3 11 -12 20 -21 20 -9 0 -16 8 -16 20 0 17 -7 20 -40 20
-33 0 -40 3 -40 20 0 19 -7 20 -240 20 l-240 0 0 25 c0 25 0 25 -99 25 -54 0
-126 3 -160 6 l-61 7 0 -32 0 -31 160 0 c153 0 160 -1 160 -20 0 -19 7 -20
200 -20 l200 0 0 -40 0 -40 -40 0 -40 0 0 -40 0 -40 40 0 40 0 0 40 0 40 40 0
40 0 0 -40 0 -40 40 0 40 0 0 -40 0 -40 -40 0 -40 0 0 -40 0 -40 -60 0 -60 0
0 40 0 40 -40 0 -40 0 0 40 0 40 -40 0 -40 0 0 40 0 40 -100 0 c-93 0 -100 -1
-100 -20 0 -17 -7 -20 -40 -20 -33 0 -40 -3 -40 -20 0 -17 -7 -20 -40 -20 -33
0 -40 3 -40 20 0 17 -7 20 -40 20 l-40 0 0 40 0 40 -40 0 c-33 0 -40 3 -40 20
0 18 -7 20 -80 20 -73 0 -80 2 -80 20 0 17 -7 20 -40 20 -33 0 -40 3 -40 20 0
17 -7 20 -41 20 l-40 0 3 37 3 38 80 6 c49 3 63 6 35 7 -36 2 -51 9 -82 39
-35 34 -38 35 -38 15 0 -19 -5 -22 -40 -22 l-40 0 0 40 0 40 -80 0 c-73 0 -80
2 -80 20 0 17 -7 20 -40 20 -33 0 -40 3 -40 20 0 17 -7 20 -40 20 -33 0 -40 3
-40 20 0 17 -7 20 -40 20 l-40 0 0 -40 0 -40 -80 0 -80 0 0 38 c0 30 -8 45
-41 80 l-41 42 -79 0 -79 0 0 60 0 60 -50 0 c-39 0 -53 4 -62 20 -7 11 -21 20
-30 20 -14 0 -18 8 -18 40 l0 40 -60 0 -60 0 0 40 0 40 -60 0 -60 0 0 40 0 40
-40 0 c-32 0 -40 4 -40 18 0 9 -9 23 -20 30 -34 21 -23 28 39 27 33 -1 58 2
56 5 -2 3 -36 6 -74 5 -54 -1 -71 2 -71 12 0 19 -51 62 -72 63 -11 0 -18 8
-18 20 0 17 -7 20 -40 20 -33 0 -40 4 -40 19 0 16 -11 20 -80 26 -58 5 -80 11
-80 21 0 10 -12 14 -40 14 -33 0 -40 3 -40 20 0 17 -7 20 -40 20 -33 0 -40 3
-40 20 0 18 -7 20 -80 20 -73 0 -80 2 -80 20 0 18 -7 20 -54 20 -46 0 -54 3
-59 21 -3 11 -15 23 -26 26 -12 3 -21 12 -21 19 0 10 -13 14 -40 14 -22 0 -40
4 -40 9 0 5 -36 12 -80 16 -44 4 -80 11 -80 15 0 13 154 24 158 11 2 -6 21
-11 43 -11 21 0 39 -4 39 -10 0 -6 33 -10 80 -10 47 0 80 4 80 10 0 6 -18 10
-40 10 -22 0 -40 5 -40 10 0 6 -18 10 -39 10 -22 0 -41 4 -43 10 -1 5 -55 10
-118 12 -112 2 -140 10 -140 38 0 17 -26 40 -44 40 -9 0 -16 7 -16 15 0 11
-11 15 -40 15 -22 0 -40 5 -40 10 0 6 16 10 36 10 19 0 43 7 51 16 15 14 1 15
-153 11 -93 -3 -170 -6 -171 -6 -2 -1 -3 -12 -3 -26 0 -14 -4 -25 -8 -25 -14
0 -32 49 -25 67 6 16 5 16 -10 4 -15 -12 -17 -11 -17 2 0 9 5 19 10 22 6 3 10
16 10 28 -1 21 -1 21 -16 -3 -16 -27 -16 -29 7 68 7 28 16 52 20 52 4 0 10 9
14 19 6 19 23 20 468 24 419 4 473 6 576 26 351 66 651 198 881 387 97 80 250
239 322 334 280 373 461 968 441 1455 -12 305 -94 564 -256 804 -70 106 -231
262 -352 343 -175 117 -331 182 -565 236 l-115 26 -1210 3 c-1163 3 -1212 2
-1251 -16z m2229 -420 c99 -7 170 -16 190 -25 18 -9 52 -22 75 -31 68 -23 193
-101 255 -160 31 -29 57 -56 57 -61 0 -10 12 -23 180 -204 58 -62 107 -117
109 -123 2 -6 19 -25 37 -42 18 -17 36 -43 39 -58 4 -15 11 -30 16 -33 5 -3 9
-15 9 -28 0 -12 4 -26 9 -31 6 -6 12 -22 15 -37 2 -14 12 -38 22 -53 21 -32
23 -48 25 -190 2 -74 -3 -133 -15 -180 -9 -38 -17 -91 -17 -117 -1 -34 -5 -48
-15 -48 -11 0 -13 -9 -8 -39 4 -24 1 -47 -7 -62 -7 -13 -13 -44 -14 -68 0 -25
-6 -46 -13 -49 -7 -2 -12 -11 -12 -20 0 -13 -2 -14 -9 -4 -6 10 -10 3 -15 -22
-4 -20 -12 -36 -18 -36 -7 0 -6 -5 1 -14 10 -12 8 -17 -8 -26 -12 -6 -21 -18
-21 -26 0 -15 -44 -114 -91 -207 -10 -21 -19 -42 -19 -48 0 -14 -58 -86 -97
-122 -18 -16 -33 -35 -33 -43 0 -8 -7 -14 -16 -14 -15 0 -67 -41 -132 -103
-18 -17 -24 -19 -31 -9 -6 11 -10 10 -16 -5 -5 -10 -8 -21 -7 -25 1 -4 -7 -9
-17 -13 -11 -3 -22 -12 -24 -20 -3 -7 -14 -11 -24 -9 -18 5 -63 -28 -63 -45 0
-5 -10 -12 -22 -16 -13 -4 -25 -8 -28 -9 -3 -2 -17 -8 -32 -14 -16 -6 -28 -18
-28 -25 0 -14 -40 -37 -65 -37 -8 0 -14 -6 -13 -12 2 -8 -5 -12 -15 -10 -9 2
-20 -4 -23 -13 -4 -9 -12 -14 -18 -12 -7 3 -20 -1 -31 -9 -10 -8 -31 -14 -46
-14 -14 0 -32 -6 -38 -14 -7 -8 -27 -17 -45 -20 -19 -4 -39 -13 -45 -20 -8 -9
-52 -16 -139 -20 -70 -4 -159 -14 -198 -22 -39 -8 -81 -13 -95 -13 -13 1 -68
-4 -123 -10 -54 -7 -110 -9 -125 -5 -14 4 -62 9 -106 10 -114 3 -117 3 -110
14 3 6 -1 10 -10 10 -9 0 -14 -3 -12 -7 8 -12 -164 -4 -195 8 -15 6 -35 9 -43
5 -8 -3 -32 3 -53 13 -80 39 -106 49 -123 46 -10 -2 -49 -5 -87 -6 -49 -2 -68
-7 -65 -15 3 -7 -6 -14 -19 -16 -21 -3 -23 -7 -21 -56 2 -43 -1 -54 -17 -64
-13 -9 -20 -24 -20 -45 0 -17 -4 -35 -10 -38 -5 -3 -10 -14 -10 -23 0 -9 -7
-30 -16 -47 -9 -16 -18 -50 -20 -75 -3 -25 -13 -57 -24 -72 -11 -15 -20 -31
-20 -37 0 -14 -43 -94 -62 -115 -10 -11 -18 -25 -18 -32 0 -7 -6 -15 -12 -17
-10 -4 -10 -8 0 -15 11 -8 11 -10 -1 -15 -9 -3 -23 -23 -32 -44 -9 -21 -21
-46 -26 -55 -5 -10 -9 -27 -9 -38 0 -11 -7 -23 -15 -26 -12 -5 -27 -32 -30
-54 -1 -9 -79 -135 -91 -147 -6 -7 -14 -9 -18 -6 -3 4 -6 -3 -6 -14 0 -12 -13
-34 -30 -50 -16 -15 -30 -33 -30 -39 0 -7 -10 -14 -23 -18 -14 -3 -28 -18 -36
-38 -12 -31 -42 -52 -106 -74 -11 -4 -30 -16 -43 -27 -21 -19 -27 -20 -76 -10
-53 11 -143 66 -139 84 2 5 -2 9 -7 9 -6 0 -10 8 -10 17 0 20 -17 77 -36 118
-21 46 -25 78 -29 230 -6 170 8 351 35 455 11 43 20 110 20 149 0 65 10 89 24
59 3 -7 3 17 0 54 -5 58 -3 69 15 87 13 13 21 16 25 8 2 -7 5 -4 5 6 1 9 -3
17 -8 17 -6 0 -9 27 -9 61 1 36 4 55 9 47 6 -9 10 -3 15 20 4 19 12 31 18 29
14 -6 8 75 -6 84 -5 3 4 20 21 36 23 24 31 41 33 79 2 27 7 55 11 62 5 6 5 17
2 22 -3 6 -3 15 1 22 4 7 9 24 11 38 5 36 11 74 13 80 1 3 1 15 1 26 -1 12 5
28 13 37 9 9 16 33 16 54 0 22 5 44 11 50 6 6 12 24 14 40 1 15 5 35 9 43 3 8
8 29 10 45 2 17 12 61 22 99 17 62 20 66 25 40 6 -26 7 -25 8 12 0 23 10 63
22 89 12 26 21 63 21 82 0 20 7 52 15 72 20 47 43 156 43 206 1 36 20 81 31
70 3 -2 6 8 7 22 1 15 14 47 29 72 15 25 26 46 24 46 -1 0 3 13 9 29 6 16 9
35 6 43 -6 16 13 63 26 63 5 0 7 8 4 18 -4 11 4 32 19 52 14 19 25 38 25 44 0
5 6 17 13 25 8 9 26 51 41 94 15 43 43 103 62 133 19 30 32 54 29 54 -4 0 4
18 16 40 13 22 26 40 31 40 4 0 8 9 8 19 0 11 6 26 13 33 7 7 16 20 20 28 21
42 37 64 37 50 0 -12 2 -12 9 -2 7 11 10 10 15 -3 3 -9 6 -23 6 -32 0 -37 86
-84 215 -118 103 -26 192 -32 242 -15 76 27 66 149 -18 229 l-34 32 28 -7 c16
-4 33 -1 42 6 8 7 15 8 15 3 0 -6 22 -8 53 -6 84 6 118 13 112 23 -3 5 11 14
32 19 21 6 61 26 90 45 28 19 71 37 95 41 182 32 543 38 881 16z m-1371 -32
c13 -13 14 -19 5 -23 -9 -5 -9 -8 2 -12 7 -4 20 -15 29 -25 12 -14 18 -15 24
-6 4 7 6 3 5 -11 -2 -27 -42 -30 -90 -6 -34 18 -173 25 -217 11 -22 -7 -23 -7
-5 4 19 12 19 12 0 19 -16 6 -12 9 19 15 25 5 40 14 43 26 6 23 23 27 103 26
48 0 70 -5 82 -18z m-312 -103 c0 -2 -7 -7 -16 -10 -8 -3 -12 -2 -9 4 6 10 25
14 25 6z m-1907 -303 c-24 -2 -62 -2 -85 0 -24 2 -5 4 42 4 47 0 66 -2 43 -4z
m392 -73 c3 -5 -3 -10 -14 -10 -12 0 -21 5 -21 10 0 6 6 10 14 10 8 0 18 -4
21 -10z m-232 -17 c-24 -2 -62 -2 -85 0 -24 2 -5 4 42 4 47 0 66 -2 43 -4z
m743 -372 c-1 -16 -5 -27 -10 -24 -4 3 -6 -3 -2 -13 3 -11 1 -26 -4 -34 -7
-11 -10 -5 -10 23 0 28 16 77 26 77 1 0 1 -13 0 -29z m1453 -2576 c0 -5 -4 -3
-9 5 -5 8 -9 22 -9 30 0 16 17 -16 18 -35z m-15 -48 c-4 -12 -7 -35 -7 -52 1
-29 1 -29 -7 -5 l-8 25 -1 -25 c-1 -23 -3 -23 -12 -7 -8 14 -7 21 7 32 12 8
18 26 18 49 0 26 3 32 9 21 4 -8 5 -25 1 -38z m-17 -109 c-3 -8 -6 -5 -6 6 -1
11 2 17 5 13 3 -3 4 -12 1 -19z m513 -48 c0 -22 -4 -40 -10 -40 -5 0 -10 18
-10 40 0 22 5 40 10 40 6 0 10 -18 10 -40z m698 -212 c-3 -7 -11 -13 -18 -13
-7 0 -15 6 -17 13 -3 7 4 12 17 12 13 0 20 -5 18 -12z m-1361 -170 c-3 -8 -6
-5 -6 6 -1 11 2 17 5 13 3 -3 4 -12 1 -19z m1943 -238 c0 -23 -10 -26 -28 -8
-18 18 -15 28 8 28 13 0 20 -7 20 -20z m880 -420 l0 -40 -80 0 -80 0 0 40 0
40 80 0 80 0 0 -40z m160 -60 c0 -17 -7 -20 -40 -20 -33 0 -40 3 -40 20 0 17
7 20 40 20 33 0 40 -3 40 -20z m80 -160 c0 -17 -7 -20 -40 -20 -33 0 -40 3
-40 20 0 17 7 20 40 20 33 0 40 -3 40 -20z"/>
<path d="M4109 5820 c-46 -24 -78 -62 -112 -133 -24 -48 -27 -64 -23 -129 5
-92 19 -133 64 -180 36 -38 83 -55 119 -44 21 7 57 68 60 102 1 20 -4 23 -59
29 -84 10 -108 34 -108 108 0 87 59 155 130 148 18 -1 21 1 12 7 -11 7 -8 11
11 16 14 3 33 3 41 0 24 -9 21 37 -5 70 -25 32 -76 35 -130 6z"/>
<path d="M3810 5339 c0 -6 -7 -9 -15 -5 -22 8 -32 -20 -39 -118 -4 -50 -12
-98 -17 -107 -5 -10 -11 -82 -13 -160 -2 -78 -8 -144 -13 -148 -5 -3 -10 -26
-11 -51 -1 -71 -3 -81 -12 -75 -5 3 -8 -8 -8 -24 1 -16 -7 -46 -16 -65 -10
-21 -16 -55 -15 -81 2 -30 -3 -50 -14 -63 -9 -10 -17 -26 -17 -36 0 -9 -7 -19
-15 -22 -10 -4 -12 -10 -6 -18 10 -12 -16 -124 -38 -164 -7 -13 -10 -30 -7
-38 3 -8 1 -38 -5 -67 -8 -38 -8 -64 0 -94 10 -37 15 -42 49 -47 69 -9 116 -6
133 10 10 9 35 20 56 25 86 21 408 49 713 63 119 5 205 21 228 43 7 7 16 13
20 13 4 0 21 13 38 28 17 15 53 42 81 61 27 18 55 46 62 62 7 17 23 32 38 35
18 5 21 9 11 15 -11 7 -11 9 0 9 8 0 22 10 33 23 16 19 20 20 28 7 8 -12 13
-8 25 20 8 19 15 29 16 22 0 -7 5 -10 10 -7 6 4 8 10 5 15 -3 4 2 13 10 20 8
7 15 23 15 36 0 13 4 24 10 24 5 0 7 6 4 14 -3 8 1 30 9 48 21 47 32 168 15
168 -10 0 -10 2 0 9 10 6 9 10 -7 14 -12 3 -21 9 -20 14 3 17 -1 33 -8 32 -22
-4 -33 3 -33 20 0 10 -7 24 -15 31 -8 7 -15 21 -15 31 0 11 -4 19 -10 19 -5 0
-10 9 -10 19 0 11 -5 21 -10 23 -6 2 -12 14 -14 28 -5 40 -29 90 -43 90 -7 0
-13 5 -13 10 0 6 -6 10 -13 10 -8 0 -24 11 -37 25 -13 14 -29 25 -35 25 -7 0
-20 9 -29 19 -19 21 -62 33 -121 33 -36 0 -38 1 -22 13 16 12 -2 14 -130 18
-307 10 -495 44 -559 103 -7 6 -51 16 -98 23 -47 7 -86 17 -86 22 0 5 -4 9
-10 9 -5 0 -10 -5 -10 -11z m855 -169 c4 -6 -9 -10 -32 -9 -34 1 -35 2 -13 9
35 11 38 11 45 0z m-255 -484 c58 -8 134 -25 170 -38 57 -21 65 -27 62 -48 -5
-48 -112 -96 -282 -129 -71 -13 -210 -25 -210 -17 0 12 51 202 60 224 12 27
45 28 200 8z"/>
<path d="M2881 5034 c0 -11 3 -14 6 -6 3 7 2 16 -1 19 -3 4 -6 -2 -5 -13z"/>
<path d="M3629 3847 c-45 -30 -96 -99 -110 -150 -16 -53 -15 -139 0 -195 25
-89 124 -163 179 -133 28 15 61 71 64 111 3 29 -1 34 -26 41 -19 5 -41 3 -63
-6 -31 -13 -35 -13 -54 6 -27 27 -36 107 -18 151 21 51 47 67 109 68 70 1 95
18 87 59 -4 16 -14 39 -24 50 -25 30 -99 29 -144 -2z"/>
<path d="M2407 2460 c-37 -11 -56 -37 -57 -75 0 -86 57 -168 148 -212 49 -24
70 -28 147 -28 78 0 94 3 123 23 17 13 32 20 32 16 0 -14 40 35 50 61 25 66 1
104 -95 150 -106 51 -287 85 -348 65z m202 -106 c33 -7 40 -26 17 -50 -21 -20
-38 -18 -31 5 4 14 0 21 -15 26 -11 3 -20 11 -20 16 0 11 7 11 49 3z"/>
<path d="M18 5753 c12 -2 32 -2 45 0 12 2 2 4 -23 4 -25 0 -35 -2 -22 -4z"/>
<path d="M1340 5709 c0 -5 23 -9 52 -9 28 0 49 2 47 4 -9 8 -99 13 -99 5z"/>
<path d="M1158 5673 c23 -2 61 -2 85 0 23 2 4 4 -43 4 -47 0 -66 -2 -42 -4z"/>
<path d="M1040 5620 c0 -14 7 -20 22 -20 20 0 21 1 3 20 -10 11 -20 20 -22 20
-1 0 -3 -9 -3 -20z"/>
<path d="M2330 5400 c0 -5 7 -10 15 -10 8 0 15 5 15 10 0 6 -7 10 -15 10 -8 0
-15 -4 -15 -10z"/>
<path d="M2128 5363 c6 -2 18 -2 25 0 6 3 1 5 -13 5 -14 0 -19 -2 -12 -5z"/>
<path d="M2320 5362 c0 -4 11 -8 24 -8 14 0 22 4 20 8 -3 4 -14 8 -25 8 -10 0
-19 -4 -19 -8z"/>
<path d="M2345 5321 c-3 -12 -11 -21 -17 -21 -7 0 -7 -4 0 -13 6 -7 9 -24 6
-38 -2 -13 -1 -17 2 -9 4 8 11 23 16 34 7 13 7 16 -1 12 -14 -9 -14 0 0 26 6
11 8 22 6 25 -3 2 -8 -5 -12 -16z"/>
<path d="M3811 2709 c-13 -28 -20 -54 -17 -57 3 -3 6 1 6 9 0 12 2 11 10 -1 8
-11 9 -7 4 14 -5 20 -4 27 4 22 8 -5 10 -1 5 10 -4 12 -3 15 6 10 6 -4 11 -4
10 1 -4 25 5 32 44 36 l42 4 -46 1 -47 2 -21 -51z"/>
<path d="M4038 2733 c23 -2 61 -2 85 0 23 2 4 4 -43 4 -47 0 -66 -2 -42 -4z"/>
<path d="M3834 2662 c2 -13 -2 -26 -11 -30 -11 -7 -12 -16 -5 -43 l10 -34 1
32 c1 17 6 35 12 38 7 5 9 -4 7 -26 -3 -32 -2 -33 35 -34 l37 -1 0 48 0 48
-39 0 c-22 0 -42 6 -45 13 -4 6 -4 2 -2 -11z"/>
<path d="M4200 2547 c8 -7 20 -21 26 -32 13 -24 41 -42 50 -32 4 4 -3 15 -14
26 -12 10 -22 26 -22 35 0 11 -9 16 -27 16 -24 -1 -26 -3 -13 -13z"/>
<path d="M4978 2133 c12 -2 32 -2 45 0 12 2 2 4 -23 4 -25 0 -35 -2 -22 -4z"/>
<path d="M5760 1620 c0 -13 7 -20 20 -20 23 0 26 10 8 28 -18 18 -28 15 -28
-8z"/>
<path d="M6073 1485 c0 -22 2 -30 4 -17 2 12 2 30 0 40 -3 9 -5 -1 -4 -23z"/>
<path d="M6225 1450 c-3 -5 -1 -10 4 -10 6 0 11 5 11 10 0 6 -2 10 -4 10 -3 0
-8 -4 -11 -10z"/>
</g>
</svg>
